<svg width="22" height="28" viewBox="0 0 22 28" fill="none" xmlns="http://www.w3.org/2000/svg">
<path d="M11.0001 6.00006C10.0112 6.00006 9.04449 6.29331 8.22223 6.84272C7.39998 7.39213 6.75911 8.17303 6.38067 9.08667C6.00222 10.0003 5.90321 11.0057 6.09613 11.9756C6.28906 12.9455 6.76527 13.8364 7.46454 14.5357C8.16381 15.2349 9.05473 15.7112 10.0246 15.9041C10.9946 16.097 11.9999 15.998 12.9135 15.6196C13.8272 15.2411 14.6081 14.6002 15.1575 13.778C15.7069 12.9557 16.0002 11.989 16.0002 11.0001C16.0002 9.67401 15.4734 8.40223 14.5357 7.46454C13.598 6.52685 12.3262 6.00006 11.0001 6.00006ZM11.0001 14.0001C10.4068 14.0001 9.82673 13.8242 9.33338 13.4945C8.84003 13.1649 8.45551 12.6964 8.22844 12.1482C8.00138 11.6 7.94197 10.9968 8.05772 10.4148C8.17348 9.83288 8.45921 9.29833 8.87877 8.87877C9.29833 8.45921 9.83288 8.17348 10.4148 8.05772C10.9968 7.94197 11.6 8.00138 12.1482 8.22844C12.6964 8.45551 13.1649 8.84003 13.4945 9.33338C13.8242 9.82673 14.0001 10.4068 14.0001 11.0001C14.0001 11.7958 13.6841 12.5588 13.1215 13.1215C12.5588 13.6841 11.7958 14.0001 11.0001 14.0001ZM11.0001 0C8.08372 0.00330845 5.28772 1.16331 3.22551 3.22551C1.16331 5.28772 0.00330845 8.08372 0 11.0001C0 14.9251 1.81377 19.0852 5.25005 23.0315C6.79409 24.8147 8.5319 26.4204 10.4314 27.819C10.5995 27.9368 10.7998 28 11.0051 28C11.2104 28 11.4107 27.9368 11.5789 27.819C13.4748 26.4199 15.2093 24.8141 16.7502 23.0315C20.1815 19.0852 22.0002 14.9251 22.0002 11.0001C21.9969 8.08372 20.8369 5.28772 18.7747 3.22551C16.7125 1.16331 13.9165 0.00330845 11.0001 0ZM11.0001 25.7503C8.93384 24.1252 2.00002 18.1564 2.00002 11.0001C2.00002 8.61314 2.94824 6.32393 4.63609 4.63609C6.32393 2.94824 8.61314 2.00002 11.0001 2.00002C13.3871 2.00002 15.6763 2.94824 17.3641 4.63609C19.052 6.32393 20.0002 8.61314 20.0002 11.0001C20.0002 18.1539 13.0664 24.1252 11.0001 25.7503Z" fill="#F4F7EA"/>
</svg>
