<svg width="206" height="70" viewBox="0 0 206 70" fill="none" xmlns="http://www.w3.org/2000/svg">
<path d="M11.547 27.1575C14.67 28.9393 17.7471 30.7253 20.7972 32.4955C32.6701 39.3863 44.1337 46.0396 56.3026 51.2937L56.3029 51.2939C72.7523 58.3897 88.3487 56.3836 102.551 45.424C107.681 41.4719 111.529 36.4768 110.772 29.1053L109.778 29.2074L110.772 29.1052C110.531 26.7523 111.315 24.7728 113.446 23.6643L11.547 27.1575ZM11.547 27.1575C9.62574 26.5189 6.74747 25.5543 3.86319 24.5876L3.7956 24.565C3.79468 24.5647 3.79374 24.5644 3.79282 24.5641C3.33099 24.4122 2.98938 24.3323 2.71469 24.3403C2.49475 24.3466 2.32377 24.4065 2.14356 24.6058C1.8389 24.9448 1.8031 25.2017 1.83318 25.4237C1.87142 25.7057 2.03967 26.0603 2.37043 26.4939L2.55491 26.7347C3.5658 28.0544 4.53833 29.3241 5.6236 30.5229C20.1448 46.497 37.8209 58.2057 57.9452 65.2658C78.3944 72.4172 97.1844 67.3364 113.524 52.8216L113.524 52.8211C115.164 51.367 116.29 49.3787 117.48 47.2759C117.642 46.9905 117.805 46.7031 117.97 46.4147C119.298 44.0992 120.823 41.6681 123.358 40.4911C126.086 39.2184 129.015 39.7955 131.715 40.5149C132.217 40.6484 132.711 40.7867 133.199 40.9234C135.457 41.5553 137.591 42.1526 139.717 42.0782M11.547 27.1575L204.489 6.53189C203.385 10.1657 201.429 13.4259 198.713 16.0421L198.712 16.0436C182.236 31.9875 162.868 41.2627 139.717 42.0782M139.717 42.0782L139.752 43.0776M139.717 42.0782L139.752 43.0776M139.752 43.0776C137.455 43.1579 135.139 42.5077 132.877 41.8728C129.664 40.9709 126.561 40.0997 123.78 41.3977M139.752 43.0776L123.78 41.3977M123.78 41.3977C121.303 42.5476 119.856 45.1064 118.354 47.7634C117.175 49.8495 115.961 51.9962 114.188 53.5692L123.78 41.3977ZM203.528 1.39993L203.527 1.39953C203.056 1.14087 202.706 1.08613 202.441 1.10661C202.171 1.12749 201.894 1.23394 201.583 1.44929C201.264 1.67006 200.942 1.98239 200.589 2.37304C200.415 2.56619 200.241 2.76896 200.06 2.98211L200.011 3.03892C199.848 3.23112 199.677 3.43188 199.504 3.62651C199.503 3.62702 199.503 3.62753 199.502 3.62804L198.755 2.96414L203.528 1.39993ZM203.528 1.39993C204.451 1.90575 204.821 2.60602 204.923 3.44301M203.528 1.39993L204.923 3.44301M204.923 3.44301C205.034 4.34781 204.827 5.41865 204.489 6.53123L204.923 3.44301ZM148.99 31.2238L148.99 31.2238L113.447 23.6637C115.777 22.4565 117.994 23.0603 119.983 24.7295C128.607 31.9841 138.582 33.1849 148.99 31.2238Z" fill="#181B0E" stroke="#0A23F4" stroke-width="2"/>
</svg>
