<svg width="108" height="109" viewBox="0 0 108 109" fill="none" xmlns="http://www.w3.org/2000/svg">
<path d="M72.1738 10.7089C79.9541 17.5844 95.7317 31.6613 96.6002 32.964C98.4096 30.7928 102.028 26.3417 102.028 25.9075C102.028 25.3647 105.828 12.8801 105.828 10.7089V2.56674L89.5437 4.73798L78.1447 7.99483L72.1738 10.7089Z" fill="#FCD569"/>
<path d="M61.0831 36.5261C63.862 38.9885 67.1316 41.9051 69.6654 44.2101C71.7878 46.1408 77.3215 46.4955 77.3215 43.6263C77.3215 43.2774 79.7729 35.2516 79.7729 33.8558C79.7729 31.0838 77.3321 28.9458 74.5843 29.3109L69.8964 29.9337C69.4773 29.9894 69.0628 30.0755 68.6562 30.1912L62.0986 32.0581C61.9748 32.0934 61.8539 32.1377 61.7367 32.1907C60.0125 32.9717 59.6664 35.2707 61.0831 36.5261Z" fill="#FCD569"/>
<path d="M16.575 43.9651L13.5016 46.1001C11.0851 47.7789 7.42792 58.0351 6.67453 60.8794C4.61472 68.6558 11.667 63.9514 18.6547 59.9655C25.5964 56.0057 32.5492 52.1053 32.5492 51.9623C32.5492 51.6134 36.3489 44.1304 36.3489 42.7346C36.3489 39.9912 33.7527 37.9903 31.0998 38.6891L26.9282 39.7879L23.0863 40.8817C20.7608 41.5437 18.5607 42.5856 16.575 43.9651Z" fill="#FCD569"/>
<path d="M62.5797 99.569C60.9036 100.333 59.4363 101.003 58.1527 101.59C52.1765 104.322 51.083 102.286 52.8102 95.9457C54.9239 88.1868 57.3507 78.539 57.5193 78.5071C57.8622 78.4422 67.678 70.0583 69.0494 69.7988C71.9416 69.2514 74.6971 71.254 75.0694 74.1738L75.7483 79.498C75.8981 80.6729 75.8414 81.865 75.5808 83.0204L75.2353 84.5516C74.6728 87.0454 73.6146 89.4007 72.1239 91.4775L71.6798 92.0961C69.3533 95.3372 66.2101 97.9142 62.5797 99.569Z" fill="#FCD569"/>
<path d="M75.0446 68.4383C78.6508 72.711 80.5383 77.38 80.4604 82.7507C80.353 90.1507 76.5518 95.721 71.2102 100.295C64.9855 105.624 57.4628 107.872 49.4119 108.504C47.6487 108.604 45.8813 108.61 44.1174 108.521C43.3554 108.506 42.6004 108.372 41.8801 108.123C38.9933 107.077 38.5545 104.938 40.8439 102.927C43.0914 100.953 45.5167 99.1737 47.6817 97.1171C49.3406 95.5287 50.8431 93.7846 52.1682 91.9087C53.5713 89.9341 53.6948 87.6558 52.8251 85.0304C51.4386 85.6757 50.1107 86.19 48.8902 86.8892C46.3312 88.3554 44.8876 88.2946 42.6922 86.3675C40.5591 84.4943 38.4628 82.5797 36.3408 80.6941C36.025 80.4477 35.695 80.22 35.3525 80.0124C34.0652 81.2025 32.8686 82.3889 31.5859 83.4734C29.886 84.9106 28.2 84.9484 27.097 83.6758C26.0632 82.4847 26.2333 80.9102 27.7271 79.3795C28.7872 78.2922 29.9985 77.3515 30.8936 76.5633C28.4867 73.6254 26.0609 71.2167 24.3168 68.3908C22.2786 65.086 24.7975 62.1402 26.3715 58.9069C23.3668 58.7184 20.8958 59.2687 18.9097 60.792C17.0143 62.3289 15.305 64.082 13.8166 66.0156C12.3748 67.7948 11.2534 69.8325 9.97343 71.7444C8.76675 73.5471 7.53056 75.4415 4.98998 75.1796C3.23111 74.9985 0.778565 71.8301 0.61586 69.4486C0.247125 64.0194 0.938505 58.7359 3.47356 53.828C8.11778 44.8401 15.4339 38.9956 24.9648 35.8688C28.9582 34.5588 32.9811 34.976 37.0543 36.2168C37.2801 35.9568 37.5451 35.6978 37.7572 35.4014C48.7565 20.0293 63.7461 10.2717 81.4983 4.477C87.5442 2.50381 93.6606 0.707593 100.105 0.543045C101.715 0.502023 103.326 0.37894 104.935 0.397376C107.033 0.420883 108.08 1.16528 107.995 3.21499C107.886 7.18159 107.514 11.1366 106.883 15.0542C104.293 29.7865 97.2078 42.4216 88.0056 53.9455C84.4238 58.4312 80.3908 62.5578 76.5587 66.8439C76.1056 67.3491 75.6239 67.8294 75.0446 68.4383ZM39.2358 75.276C41.6326 77.1805 43.3781 78.6748 45.2545 79.9773C45.5733 80.1276 45.9217 80.2046 46.2742 80.2029C46.6267 80.2011 46.9744 80.1206 47.2917 79.9672C50.266 78.3904 53.3076 76.8823 56.0764 74.986C65.9377 68.2327 74.8593 60.3864 82.3584 51.0519C86.4274 45.9878 90.1503 40.6467 94.1059 35.3277L71.1839 14.0415C70.4273 14.3954 69.6902 14.7894 68.9756 15.2219C64.5047 18.1889 59.9467 21.0392 55.6293 24.2158C50.7896 27.776 46.6944 32.1266 43.0384 36.922C36.975 44.8742 33.4052 54.1603 28.9186 62.9547C28.4724 63.8304 28.7227 65.5944 29.3551 66.3775C31.001 68.4161 33.0392 70.1386 35.2507 72.3109C38.7076 68.7277 41.7496 65.3791 45.0148 62.2601C46.8959 60.5713 48.9127 59.0402 51.045 57.6822C52.1659 56.9208 53.5971 56.6613 54.6226 57.8307C55.662 59.0161 54.7669 60.1772 54.0363 61.1299C53.1728 62.2061 52.2371 63.2225 51.2358 64.172C49.1617 66.2221 47.0829 68.2663 44.9461 70.2492C43.1536 71.9154 41.2758 73.4876 39.2358 75.276ZM103.65 4.88216C93.8422 4.90198 85.1857 8.5483 76.36 11.5157L76.2024 12.1264L96.5017 29.2394C99.9803 23.7268 102.648 14.6384 103.65 4.88216ZM55.0748 99.8632C63.3335 98.3076 69.732 94.1188 73.3272 86.4417C75.724 81.3181 74.0499 76.5361 71.2249 71.9901C66.4696 75.6203 61.9213 79.0933 57.3739 82.5654C60.9557 88.8864 59.1212 94.4534 55.0748 99.8632ZM34.5178 40.0691C22.71 38.1333 6.38749 54.0995 7.44622 65.0607C12.2679 57.4463 18.4553 52.8587 27.7663 54.5093L34.5178 40.0691Z" fill="#181B0E"/>
<path d="M10.5757 99.1186C10.9255 98.4853 11.3012 97.3339 12.0506 96.5333C14.877 93.5156 17.807 90.5939 20.7389 87.6776C21.5999 86.8212 22.6891 86.281 23.8096 87.195C24.9914 88.1593 24.4742 89.3116 23.7759 90.2657C21.3792 93.5382 18.9769 96.8107 16.4441 99.9768C15.6907 100.842 14.7332 101.506 13.6583 101.907C12.0626 102.536 10.5199 101.271 10.5757 99.1186Z" fill="#181B0E"/>
<path d="M36.8276 87.3842C38.527 87.4303 39.7623 88.9629 39.0064 90.1498C37.0812 93.1372 34.9663 95.998 32.6747 98.7146C31.8538 99.6977 30.3798 99.5585 29.3372 98.6177C28.8605 98.2142 28.5486 97.6497 28.4608 97.0313C28.3731 96.4129 28.5155 95.7839 28.8611 95.2636C29.4866 94.222 30.2304 93.2561 31.0777 92.3852C32.3327 91.0485 33.6588 89.7736 35.0222 88.549C35.5863 88.1052 36.1908 87.7153 36.8276 87.3842Z" fill="#181B0E"/>
<path d="M21.646 74.4195C21.3216 75.1364 20.9383 75.8253 20.5002 76.4789C18.36 79.1501 16.1869 81.7946 13.9809 84.4123C13.5664 84.8586 13.0843 85.2369 12.5521 85.5332C11.4505 86.2103 10.3305 86.2094 9.44227 85.2064C8.52458 84.1703 8.72831 83.0203 9.6483 82.1289C12.6599 79.2094 15.7062 76.3245 18.8127 73.5069C19.2188 73.1382 20.0835 73.0783 20.6776 73.1879C21.0344 73.2539 21.2796 73.9254 21.646 74.4195Z" fill="#181B0E"/>
<path d="M70.1717 25.4897C73.1649 25.4487 75.4722 26.6729 77.7883 28.6018C80.1893 30.6013 81.9827 32.734 82.869 35.7147C84.9146 42.6092 80.8673 47.6844 74.3033 48.6126C68.9834 49.3649 64.471 47.1741 61.1888 43.0097C58.3772 39.4413 58.3012 35.2889 60.2513 31.2987C62.2176 27.2726 65.7597 25.5326 70.1717 25.4897ZM63.8538 36.5356C64.6227 37.8622 65.1744 39.5533 66.3198 40.5871C67.5062 41.6578 69.2314 42.1883 70.7874 42.7802C72.8321 43.5582 74.6015 42.7341 75.9908 41.2877C77.3353 39.8889 77.385 38.1318 76.7282 36.3421C75.693 33.5203 73.2782 32.1044 70.8534 30.8272C68.676 29.6804 66.6097 30.3663 65.3684 32.5137C64.7356 33.6065 64.4526 34.9017 63.8538 36.5356Z" fill="#181B0E"/>
</svg>
