<svg width="317" height="219" viewBox="0 0 317 219" fill="none" xmlns="http://www.w3.org/2000/svg">
<path d="M16.547 132.157C19.67 133.939 22.7471 135.725 25.7972 137.495C37.6701 144.386 49.1337 151.04 61.3026 156.294L61.3029 156.294C77.7523 163.39 93.3487 161.384 107.551 150.424C112.681 146.472 116.529 141.477 115.772 134.105L114.778 134.207L115.772 134.105C115.531 131.752 116.315 129.773 118.446 128.664L16.547 132.157ZM16.547 132.157C14.6257 131.519 11.7475 130.554 8.86319 129.588L8.7956 129.565C8.79468 129.565 8.79374 129.564 8.79282 129.564C8.33099 129.412 7.98938 129.332 7.71469 129.34C7.49475 129.347 7.32377 129.406 7.14356 129.606C6.8389 129.945 6.8031 130.202 6.83318 130.424C6.87142 130.706 7.03967 131.06 7.37043 131.494L7.55491 131.735C8.5658 133.054 9.53833 134.324 10.6236 135.523C25.1448 151.497 42.8209 163.206 62.9452 170.266C83.3944 177.417 102.184 172.336 118.524 157.822L118.524 157.821C120.164 156.367 121.29 154.379 122.48 152.276C122.642 151.991 122.805 151.703 122.97 151.415C124.298 149.099 125.823 146.668 128.358 145.491C131.086 144.218 134.015 144.796 136.715 145.515C137.217 145.648 137.711 145.787 138.199 145.923C140.457 146.555 142.591 147.153 144.717 147.078M16.547 132.157L209.489 111.532C208.385 115.166 206.429 118.426 203.713 121.042L203.712 121.044C187.236 136.987 167.868 146.263 144.717 147.078M144.717 147.078L144.752 148.078M144.717 147.078L144.752 148.078M144.752 148.078C142.455 148.158 140.139 147.508 137.877 146.873C134.664 145.971 131.561 145.1 128.78 146.398M144.752 148.078L128.78 146.398M128.78 146.398C126.303 147.548 124.856 150.106 123.354 152.763C122.175 154.85 120.961 156.996 119.188 158.569L128.78 146.398ZM208.528 106.4L208.527 106.4C208.056 106.141 207.706 106.086 207.441 106.107C207.171 106.127 206.894 106.234 206.583 106.449C206.264 106.67 205.942 106.982 205.589 107.373C205.415 107.566 205.241 107.769 205.06 107.982L205.011 108.039C204.848 108.231 204.677 108.432 204.504 108.627C204.503 108.627 204.503 108.628 204.502 108.628L203.755 107.964L208.528 106.4ZM208.528 106.4C209.451 106.906 209.821 107.606 209.923 108.443M208.528 106.4L209.923 108.443M209.923 108.443C210.034 109.348 209.827 110.419 209.489 111.531L209.923 108.443ZM153.99 136.224L153.99 136.224L118.447 128.664C120.777 127.457 122.994 128.06 124.983 129.73C133.607 136.984 143.582 138.185 153.99 136.224Z" fill="#181B0E" stroke="#0A23F4" stroke-width="2"/>
<path d="M281.175 10.7088C288.955 17.5844 304.733 31.6612 305.601 32.964C307.411 30.7927 311.029 26.3417 311.029 25.9075C311.029 25.3647 314.829 12.8801 314.829 10.7088V2.56671L298.545 4.73794L287.146 7.99479L281.175 10.7088Z" fill="#FCD569"/>
<path d="M270.084 36.5261C272.863 38.9884 276.133 41.905 278.666 44.2101C280.789 46.1408 286.322 46.4955 286.322 43.6263C286.322 43.2773 288.774 35.2515 288.774 33.8557C288.774 31.0838 286.333 28.9458 283.585 29.3109L278.897 29.9337C278.478 29.9894 278.064 30.0754 277.657 30.1912L271.1 32.0581C270.976 32.0933 270.855 32.1376 270.738 32.1907C269.013 32.9717 268.667 35.2707 270.084 36.5261Z" fill="#FCD569"/>
<path d="M225.575 43.965L222.502 46.1001C220.086 47.7788 216.428 58.0351 215.675 60.8793C213.615 68.6558 220.668 63.9514 227.655 59.9654C234.597 56.0057 241.55 52.1052 241.55 51.9623C241.55 51.6133 245.349 44.1303 245.349 42.7345C245.349 39.9912 242.753 37.9903 240.1 38.6891L235.929 39.7879L232.087 40.8816C229.761 41.5437 227.561 42.5855 225.575 43.965Z" fill="#FCD569"/>
<path d="M271.579 99.569C269.903 100.333 268.436 101.003 267.152 101.59C261.176 104.322 260.082 102.286 261.81 95.9457C263.923 88.1868 266.35 78.539 266.519 78.5071C266.862 78.4422 276.678 70.0583 278.049 69.7988C280.941 69.2514 283.697 71.254 284.069 74.1738L284.748 79.498C284.898 80.6729 284.841 81.865 284.58 83.0204L284.235 84.5516C283.672 87.0454 282.614 89.4007 281.123 91.4775L280.679 92.0961C278.353 95.3372 275.21 97.9142 271.579 99.569Z" fill="#FCD569"/>
<path d="M284.045 68.4383C287.651 72.711 289.539 77.38 289.461 82.7507C289.353 90.1507 285.552 95.721 280.211 100.295C273.986 105.624 266.463 107.872 258.412 108.504C256.649 108.604 254.882 108.61 253.118 108.521C252.356 108.506 251.601 108.372 250.881 108.123C247.994 107.077 247.555 104.938 249.844 102.927C252.092 100.953 254.517 99.1737 256.682 97.1171C258.341 95.5287 259.844 93.7846 261.169 91.9087C262.572 89.9341 262.695 87.6558 261.826 85.0304C260.439 85.6757 259.111 86.19 257.891 86.8892C255.332 88.3554 253.888 88.2946 251.693 86.3675C249.56 84.4943 247.463 82.5797 245.341 80.6941C245.025 80.4477 244.696 80.22 244.353 80.0124C243.066 81.2025 241.869 82.3889 240.586 83.4734C238.887 84.9106 237.2 84.9484 236.098 83.6758C235.064 82.4847 235.234 80.9102 236.728 79.3795C237.788 78.2922 238.999 77.3515 239.894 76.5633C237.487 73.6254 235.061 71.2167 233.317 68.3908C231.279 65.086 233.798 62.1402 235.372 58.9069C232.367 58.7184 229.896 59.2687 227.91 60.792C226.015 62.3289 224.306 64.082 222.817 66.0156C221.375 67.7948 220.254 69.8325 218.974 71.7444C217.767 73.5471 216.531 75.4415 213.99 75.1796C212.232 74.9985 209.779 71.8301 209.616 69.4486C209.248 64.0194 209.939 58.7359 212.474 53.828C217.118 44.8401 224.434 38.9956 233.965 35.8688C237.959 34.5588 241.982 34.976 246.055 36.2168C246.281 35.9568 246.546 35.6978 246.758 35.4014C257.757 20.0293 272.747 10.2717 290.499 4.477C296.545 2.50381 302.661 0.707593 309.106 0.543045C310.716 0.502023 312.326 0.37894 313.935 0.397376C316.034 0.420883 317.08 1.16528 316.995 3.21499C316.886 7.18159 316.515 11.1366 315.883 15.0542C313.293 29.7865 306.208 42.4216 297.006 53.9455C293.424 58.4312 289.391 62.5578 285.559 66.8439C285.106 67.3491 284.624 67.8294 284.045 68.4383ZM248.236 75.276C250.633 77.1805 252.379 78.6748 254.255 79.9773C254.574 80.1276 254.922 80.2046 255.275 80.2029C255.627 80.2011 255.975 80.1206 256.292 79.9672C259.267 78.3904 262.308 76.8823 265.077 74.986C274.938 68.2327 283.86 60.3864 291.359 51.0519C295.428 45.9878 299.151 40.6467 303.106 35.3277L280.184 14.0415C279.428 14.3954 278.691 14.7894 277.976 15.2219C273.505 18.1889 268.947 21.0392 264.63 24.2158C259.79 27.776 255.695 32.1266 252.039 36.922C245.975 44.8742 242.406 54.1603 237.919 62.9547C237.473 63.8304 237.723 65.5944 238.356 66.3775C240.001 68.4161 242.04 70.1386 244.251 72.3109C247.708 68.7277 250.75 65.3791 254.015 62.2601C255.896 60.5713 257.913 59.0402 260.045 57.6822C261.166 56.9208 262.598 56.6613 263.623 57.8307C264.662 59.0161 263.767 60.1772 263.037 61.1299C262.173 62.2061 261.238 63.2225 260.236 64.172C258.162 66.2221 256.083 68.2663 253.947 70.2492C252.154 71.9154 250.276 73.4876 248.236 75.276ZM312.651 4.88216C302.843 4.90198 294.186 8.5483 285.361 11.5157L285.203 12.1264L305.502 29.2394C308.981 23.7268 311.648 14.6384 312.651 4.88216ZM264.075 99.8632C272.334 98.3076 278.732 94.1188 282.328 86.4417C284.724 81.3181 283.05 76.5361 280.225 71.9901C275.47 75.6203 270.922 79.0933 266.374 82.5654C269.956 88.8864 268.122 94.4534 264.075 99.8632ZM243.518 40.0691C231.71 38.1333 215.388 54.0995 216.447 65.0607C221.268 57.4463 227.456 52.8587 236.767 54.5093L243.518 40.0691Z" fill="#181B0E"/>
<path d="M219.576 99.1185C219.926 98.4852 220.302 97.3338 221.051 96.5332C223.877 93.5156 226.808 90.5938 229.739 87.6776C230.6 86.8212 231.69 86.281 232.81 87.195C233.992 88.1592 233.475 89.3115 232.776 90.2656C230.38 93.5382 227.977 96.8107 225.445 99.9767C224.691 100.842 223.734 101.506 222.659 101.907C221.063 102.536 219.52 101.271 219.576 99.1185Z" fill="#181B0E"/>
<path d="M245.829 87.3843C247.528 87.4304 248.763 88.9629 248.007 90.1498C246.082 93.1372 243.967 95.998 241.676 98.7146C240.855 99.6977 239.381 99.5585 238.338 98.6178C237.861 98.2143 237.55 97.6497 237.462 97.0313C237.374 96.413 237.516 95.7839 237.862 95.2637C238.488 94.222 239.231 93.2561 240.079 92.3852C241.334 91.0486 242.66 89.7737 244.023 88.549C244.587 88.1053 245.192 87.7153 245.829 87.3843Z" fill="#181B0E"/>
<path d="M230.646 74.4196C230.322 75.1365 229.938 75.8253 229.5 76.4789C227.36 79.1501 225.187 81.7946 222.981 84.4123C222.566 84.8586 222.084 85.2369 221.552 85.5333C220.45 86.2103 219.33 86.2094 218.442 85.2065C217.525 84.1703 217.728 83.0203 218.648 82.1289C221.66 79.2095 224.706 76.3245 227.813 73.5069C228.219 73.1382 229.083 73.0783 229.678 73.188C230.034 73.2539 230.28 73.9254 230.646 74.4196Z" fill="#181B0E"/>
<path d="M279.171 25.4897C282.164 25.4487 284.472 26.6729 286.788 28.6018C289.189 30.6013 290.982 32.7339 291.869 35.7147C293.914 42.6091 289.867 47.6843 283.303 48.6126C277.983 49.3648 273.471 47.1741 270.188 43.0097C267.377 39.4413 267.301 35.2889 269.251 31.2987C271.217 27.2726 274.759 25.5326 279.171 25.4897ZM272.853 36.5356C273.622 37.8621 274.174 39.5533 275.319 40.5871C276.506 41.6578 278.231 42.1883 279.787 42.7801C281.832 43.5582 283.601 42.7341 284.99 41.2877C286.335 39.8888 286.385 38.1318 285.728 36.3421C284.693 33.5203 282.278 32.1043 279.853 30.8271C277.675 29.6804 275.609 30.3662 274.368 32.5137C273.735 33.6065 273.452 34.9017 272.853 36.5356Z" fill="#181B0E"/>
</svg>
