<svg width="317" height="219" viewBox="0 0 317 219" fill="none" xmlns="http://www.w3.org/2000/svg">
<path d="M16.547 132.157C19.67 133.939 22.7471 135.725 25.7972 137.495C37.6701 144.386 49.1337 151.04 61.3026 156.294L61.3029 156.294C77.7523 163.39 93.3487 161.384 107.551 150.424C112.681 146.472 116.529 141.477 115.772 134.105L114.778 134.207L115.772 134.105C115.531 131.752 116.315 129.773 118.446 128.664L16.547 132.157ZM16.547 132.157C14.6257 131.519 11.7475 130.554 8.86319 129.588L8.7956 129.565C8.79468 129.565 8.79374 129.564 8.79282 129.564C8.33099 129.412 7.98938 129.332 7.71469 129.34C7.49475 129.347 7.32377 129.406 7.14356 129.606C6.8389 129.945 6.8031 130.202 6.83318 130.424C6.87142 130.706 7.03967 131.06 7.37043 131.494L7.55491 131.735C8.5658 133.054 9.53833 134.324 10.6236 135.523C25.1448 151.497 42.8209 163.206 62.9452 170.266C83.3944 177.417 102.184 172.336 118.524 157.822L118.524 157.821C120.164 156.367 121.29 154.379 122.48 152.276C122.642 151.991 122.805 151.703 122.97 151.415C124.298 149.099 125.823 146.668 128.358 145.491C131.086 144.218 134.015 144.796 136.715 145.515C137.217 145.648 137.711 145.787 138.199 145.923C140.457 146.555 142.591 147.153 144.717 147.078M16.547 132.157L209.489 111.532C208.385 115.166 206.429 118.426 203.713 121.042L203.712 121.044C187.236 136.987 167.868 146.263 144.717 147.078M144.717 147.078L144.752 148.078M144.717 147.078L144.752 148.078M144.752 148.078C142.455 148.158 140.139 147.508 137.877 146.873C134.664 145.971 131.561 145.1 128.78 146.398M144.752 148.078L128.78 146.398M128.78 146.398C126.303 147.548 124.856 150.106 123.354 152.763C122.175 154.85 120.961 156.996 119.188 158.569L128.78 146.398ZM208.528 106.4L208.527 106.4C208.056 106.141 207.706 106.086 207.441 106.107C207.171 106.127 206.894 106.234 206.583 106.449C206.264 106.67 205.942 106.982 205.589 107.373C205.415 107.566 205.241 107.769 205.06 107.982L205.011 108.039C204.848 108.231 204.677 108.432 204.504 108.627C204.503 108.627 204.503 108.628 204.502 108.628L203.755 107.964L208.528 106.4ZM208.528 106.4C209.451 106.906 209.821 107.606 209.923 108.443M208.528 106.4L209.923 108.443M209.923 108.443C210.034 109.348 209.827 110.419 209.489 111.531L209.923 108.443ZM153.99 136.224L153.99 136.224L118.447 128.664C120.777 127.457 122.994 128.06 124.983 129.73C133.607 136.984 143.582 138.185 153.99 136.224Z" fill="#181B0E" stroke="#0A23F4" stroke-width="2"/>
<path d="M281.174 10.7089C288.954 17.5844 304.732 31.6613 305.6 32.964C307.41 30.7928 311.028 26.3417 311.028 25.9075C311.028 25.3647 314.828 12.8801 314.828 10.7089V2.56674L298.544 4.73798L287.145 7.99483L281.174 10.7089Z" fill="#FCD569"/>
<path d="M270.083 36.5261C272.862 38.9885 276.132 41.9051 278.665 44.2101C280.788 46.1408 286.321 46.4955 286.321 43.6263C286.321 43.2774 288.773 35.2516 288.773 33.8558C288.773 31.0838 286.332 28.9458 283.584 29.3109L278.896 29.9337C278.477 29.9894 278.063 30.0755 277.656 30.1912L271.099 32.0581C270.975 32.0934 270.854 32.1377 270.737 32.1907C269.012 32.9717 268.666 35.2707 270.083 36.5261Z" fill="#FCD569"/>
<path d="M225.575 43.9651L222.502 46.1001C220.085 47.7789 216.428 58.0351 215.675 60.8794C213.615 68.6558 220.667 63.9514 227.655 59.9655C234.596 56.0057 241.549 52.1053 241.549 51.9623C241.549 51.6134 245.349 44.1304 245.349 42.7346C245.349 39.9912 242.753 37.9903 240.1 38.6891L235.928 39.7879L232.086 40.8817C229.761 41.5437 227.561 42.5856 225.575 43.9651Z" fill="#FCD569"/>
<path d="M271.58 99.569C269.904 100.333 268.436 101.003 267.153 101.59C261.176 104.322 260.083 102.286 261.81 95.9457C263.924 88.1868 266.351 78.539 266.519 78.5071C266.862 78.4422 276.678 70.0583 278.049 69.7988C280.942 69.2514 283.697 71.254 284.069 74.1738L284.748 79.498C284.898 80.6729 284.841 81.865 284.581 83.0204L284.235 84.5516C283.673 87.0454 282.615 89.4007 281.124 91.4775L280.68 92.0961C278.353 95.3372 275.21 97.9142 271.58 99.569Z" fill="#FCD569"/>
<path d="M284.045 68.4383C287.651 72.711 289.538 77.38 289.46 82.7507C289.353 90.1507 285.552 95.721 280.21 100.295C273.985 105.624 266.463 107.872 258.412 108.504C256.649 108.604 254.881 108.61 253.117 108.521C252.355 108.506 251.6 108.372 250.88 108.123C247.993 107.077 247.555 104.938 249.844 102.927C252.091 100.953 254.517 99.1737 256.682 97.1171C258.341 95.5287 259.843 93.7846 261.168 91.9087C262.571 89.9341 262.695 87.6558 261.825 85.0304C260.439 85.6757 259.111 86.19 257.89 86.8892C255.331 88.3554 253.888 88.2946 251.692 86.3675C249.559 84.4943 247.463 82.5797 245.341 80.6941C245.025 80.4477 244.695 80.22 244.353 80.0124C243.065 81.2025 241.869 82.3889 240.586 83.4734C238.886 84.9106 237.2 84.9484 236.097 83.6758C235.063 82.4847 235.233 80.9102 236.727 79.3795C237.787 78.2922 238.999 77.3515 239.894 76.5633C237.487 73.6254 235.061 71.2167 233.317 68.3908C231.279 65.086 233.798 62.1402 235.372 58.9069C232.367 58.7184 229.896 59.2687 227.91 60.792C226.014 62.3289 224.305 64.082 222.817 66.0156C221.375 67.7948 220.253 69.8325 218.973 71.7444C217.767 73.5471 216.531 75.4415 213.99 75.1796C212.231 74.9985 209.779 71.8301 209.616 69.4486C209.247 64.0194 209.939 58.7359 212.474 53.828C217.118 44.8401 224.434 38.9956 233.965 35.8688C237.958 34.5588 241.981 34.976 246.054 36.2168C246.28 35.9568 246.545 35.6978 246.757 35.4014C257.757 20.0293 272.746 10.2717 290.498 4.477C296.544 2.50381 302.661 0.707593 309.105 0.543045C310.715 0.502023 312.326 0.37894 313.935 0.397376C316.033 0.420883 317.08 1.16528 316.995 3.21499C316.886 7.18159 316.514 11.1366 315.883 15.0542C313.293 29.7865 306.208 42.4216 297.006 53.9455C293.424 58.4312 289.391 62.5578 285.559 66.8439C285.106 67.3491 284.624 67.8294 284.045 68.4383ZM248.236 75.276C250.633 77.1805 252.378 78.6748 254.254 79.9773C254.573 80.1276 254.922 80.2046 255.274 80.2029C255.627 80.2011 255.974 80.1206 256.292 79.9672C259.266 78.3904 262.308 76.8823 265.076 74.986C274.938 68.2327 283.859 60.3864 291.358 51.0519C295.427 45.9878 299.15 40.6467 303.106 35.3277L280.184 14.0415C279.427 14.3954 278.69 14.7894 277.976 15.2219C273.505 18.1889 268.947 21.0392 264.629 24.2158C259.79 27.776 255.694 32.1266 252.038 36.922C245.975 44.8742 242.405 54.1603 237.919 62.9547C237.472 63.8304 237.723 65.5944 238.355 66.3775C240.001 68.4161 242.039 70.1386 244.251 72.3109C247.708 68.7277 250.75 65.3791 254.015 62.2601C255.896 60.5713 257.913 59.0402 260.045 57.6822C261.166 56.9208 262.597 56.6613 263.623 57.8307C264.662 59.0161 263.767 60.1772 263.036 61.1299C262.173 62.2061 261.237 63.2225 260.236 64.172C258.162 66.2221 256.083 68.2663 253.946 70.2492C252.154 71.9154 250.276 73.4876 248.236 75.276ZM312.65 4.88216C302.842 4.90198 294.186 8.5483 285.36 11.5157L285.202 12.1264L305.502 29.2394C308.98 23.7268 311.648 14.6384 312.65 4.88216ZM264.075 99.8632C272.334 98.3076 278.732 94.1188 282.327 86.4417C284.724 81.3181 283.05 76.5361 280.225 71.9901C275.47 75.6203 270.921 79.0933 266.374 82.5654C269.956 88.8864 268.121 94.4534 264.075 99.8632ZM243.518 40.0691C231.71 38.1333 215.387 54.0995 216.446 65.0607C221.268 57.4463 227.455 52.8587 236.766 54.5093L243.518 40.0691Z" fill="#181B0E"/>
<path d="M219.576 99.1186C219.926 98.4853 220.301 97.3339 221.051 96.5333C223.877 93.5156 226.807 90.5939 229.739 87.6776C230.6 86.8212 231.689 86.281 232.81 87.195C233.991 88.1593 233.474 89.3116 232.776 90.2657C230.379 93.5382 227.977 96.8107 225.444 99.9768C224.691 100.842 223.733 101.506 222.658 101.907C221.063 102.536 219.52 101.271 219.576 99.1186Z" fill="#181B0E"/>
<path d="M245.828 87.3842C247.527 87.4303 248.762 88.9629 248.006 90.1498C246.081 93.1372 243.966 95.998 241.675 98.7146C240.854 99.6977 239.38 99.5585 238.337 98.6177C237.861 98.2142 237.549 97.6497 237.461 97.0313C237.373 96.4129 237.516 95.7839 237.861 95.2636C238.487 94.222 239.23 93.2561 240.078 92.3852C241.333 91.0485 242.659 89.7736 244.022 88.549C244.586 88.1052 245.191 87.7153 245.828 87.3842Z" fill="#181B0E"/>
<path d="M230.646 74.4195C230.322 75.1364 229.938 75.8253 229.5 76.4789C227.36 79.1501 225.187 81.7946 222.981 84.4123C222.566 84.8586 222.084 85.2369 221.552 85.5332C220.45 86.2103 219.33 86.2094 218.442 85.2064C217.525 84.1703 217.728 83.0203 218.648 82.1289C221.66 79.2094 224.706 76.3245 227.813 73.5069C228.219 73.1382 229.083 73.0783 229.678 73.1879C230.034 73.2539 230.28 73.9254 230.646 74.4195Z" fill="#181B0E"/>
<path d="M279.172 25.4897C282.165 25.4487 284.472 26.6729 286.788 28.6018C289.189 30.6013 290.983 32.734 291.869 35.7147C293.915 42.6092 289.867 47.6844 283.303 48.6126C277.983 49.3649 273.471 47.1741 270.189 43.0097C267.377 39.4413 267.301 35.2889 269.251 31.2987C271.218 27.2726 274.76 25.5326 279.172 25.4897ZM272.854 36.5356C273.623 37.8622 274.174 39.5533 275.32 40.5871C276.506 41.6578 278.231 42.1883 279.787 42.7802C281.832 43.5582 283.602 42.7341 284.991 41.2877C286.335 39.8889 286.385 38.1318 285.728 36.3421C284.693 33.5203 282.278 32.1044 279.853 30.8272C277.676 29.6804 275.61 30.3663 274.368 32.5137C273.736 33.6065 273.453 34.9017 272.854 36.5356Z" fill="#181B0E"/>
</svg>
